<svg width="143" height="32" viewBox="0 0 143 32" fill="none" xmlns="http://www.w3.org/2000/svg">
<path d="M45.9179 11.3862H40.1339C40.1339 9.53022 40.9739 8.60222 42.6539 8.60222H54.9179C54.9179 10.4582 54.0699 11.3862 52.3739 11.3862H49.1339V23.2422C49.1339 24.0102 48.8619 24.6022 48.3179 25.0182C47.7739 25.4182 46.9739 25.6182 45.9179 25.6182V11.3862ZM58.3912 25.6182C57.3992 25.6182 56.4952 25.4262 55.6792 25.0422C54.8632 24.6422 54.2152 24.1062 53.7352 23.4342C53.2552 22.7462 53.0152 21.9782 53.0152 21.1302V17.9382C53.0152 17.0422 53.2632 16.2342 53.7592 15.5142C54.2552 14.7942 54.9112 14.2262 55.7272 13.8102C56.5592 13.3942 57.4552 13.1862 58.4152 13.1862C59.3592 13.1862 60.2232 13.3862 61.0072 13.7862C61.8072 14.1702 62.4392 14.7142 62.9032 15.4182C63.3672 16.1062 63.5992 16.8982 63.5992 17.7942V19.1382C63.5992 19.4902 63.4632 19.7862 63.1912 20.0262C62.9352 20.2662 62.6072 20.3862 62.2072 20.3862H55.9192V20.9142C55.9192 21.6022 56.1272 22.1622 56.5432 22.5942C56.9592 23.0262 57.5832 23.2422 58.4152 23.2422C59.2152 23.2422 59.8072 23.0662 60.1912 22.7142C60.5912 22.3622 60.7912 21.9062 60.7912 21.3462C61.0792 21.3142 61.2792 21.2982 61.3912 21.2982C61.9832 21.2982 62.4472 21.4342 62.7832 21.7062C63.1192 21.9622 63.2872 22.3302 63.2872 22.8102C63.2872 23.2742 63.0712 23.7222 62.6392 24.1542C62.2072 24.5862 61.6152 24.9382 60.8632 25.2102C60.1112 25.4822 59.2872 25.6182 58.3912 25.6182ZM60.8872 18.2502V17.7942C60.8872 17.1222 60.6552 16.5782 60.1912 16.1622C59.7272 15.7462 59.1272 15.5382 58.3912 15.5382C57.6552 15.5382 57.0552 15.7462 56.5912 16.1622C56.1432 16.5622 55.9192 17.1062 55.9192 17.7942V18.2502H60.8872ZM71.0692 25.6182C70.0292 25.6182 69.1092 25.4342 68.3092 25.0662C67.5092 24.6822 66.8852 24.1542 66.4372 23.4822C65.9892 22.8102 65.7652 22.0502 65.7652 21.2022V17.8422C65.7652 16.9302 65.9892 16.1222 66.4372 15.4182C66.8852 14.7142 67.5092 14.1702 68.3092 13.7862C69.1092 13.3862 70.0212 13.1862 71.0452 13.1862C72.0052 13.1862 72.8532 13.3222 73.5892 13.5942C74.3412 13.8662 74.9252 14.2502 75.3412 14.7462C75.7572 15.2262 75.9652 15.7862 75.9652 16.4262C75.9652 16.9222 75.7732 17.3222 75.3892 17.6262C75.0052 17.9302 74.5012 18.0822 73.8772 18.0822C73.7012 18.0822 73.5732 18.0742 73.4932 18.0582C73.4932 17.3702 73.2692 16.8182 72.8212 16.4022C72.3892 15.9862 71.8212 15.7782 71.1172 15.7782C70.4132 15.7782 69.8372 15.9782 69.3892 16.3782C68.9572 16.7782 68.7412 17.3062 68.7412 17.9622V20.9862C68.7412 21.5942 68.9652 22.0902 69.4132 22.4742C69.8612 22.8422 70.4372 23.0262 71.1412 23.0262C71.8452 23.0262 72.4212 22.8182 72.8692 22.4022C73.3172 21.9702 73.5412 21.4262 73.5412 20.7702C73.6372 20.7542 73.7732 20.7462 73.9492 20.7462C74.5732 20.7462 75.0772 20.8902 75.4612 21.1782C75.8452 21.4662 76.0372 21.8582 76.0372 22.3542C76.0372 22.9942 75.8212 23.5622 75.3892 24.0582C74.9732 24.5382 74.3892 24.9222 73.6372 25.2102C72.8852 25.4822 72.0292 25.6182 71.0692 25.6182ZM78.331 10.6902C78.331 9.95422 78.587 9.38622 79.099 8.98622C79.611 8.58622 80.347 8.38622 81.307 8.38622V14.6262C81.099 14.8502 80.907 15.1062 80.731 15.3942L80.875 15.4902C81.979 13.9542 83.387 13.1862 85.099 13.1862C85.915 13.1862 86.635 13.3702 87.259 13.7382C87.883 14.1062 88.363 14.6102 88.699 15.2502C89.051 15.8902 89.227 16.6102 89.227 17.4102V23.7942C89.227 24.4342 88.979 24.8982 88.483 25.1862C87.987 25.4742 87.235 25.6182 86.227 25.6182V17.8422C86.227 17.2342 86.043 16.7382 85.675 16.3542C85.323 15.9702 84.803 15.7782 84.115 15.7782C83.299 15.7782 82.627 16.0342 82.099 16.5462C81.571 17.0422 81.307 17.6662 81.307 18.4182V23.7942C81.307 24.4342 81.059 24.8982 80.563 25.1862C80.067 25.4742 79.323 25.6182 78.331 25.6182V10.6902ZM98.7196 25.6182C97.2956 25.6182 96.0236 25.3462 94.9036 24.8022C93.7996 24.2582 92.9356 23.4982 92.3116 22.5222C91.6876 21.5462 91.3756 20.4342 91.3756 19.1862V14.7702C91.3756 13.5222 91.6796 12.4182 92.2876 11.4582C92.9116 10.4822 93.7676 9.73022 94.8556 9.20222C95.9436 8.65822 97.1916 8.38622 98.5996 8.38622C100.008 8.38622 101.256 8.60222 102.344 9.03422C103.448 9.45022 104.304 10.0422 104.912 10.8102C105.52 11.5622 105.824 12.4262 105.824 13.4022C105.824 13.9942 105.624 14.4662 105.224 14.8182C104.84 15.1542 104.32 15.3222 103.664 15.3222C103.344 15.3222 102.992 15.2742 102.608 15.1782C102.64 14.7942 102.656 14.4182 102.656 14.0502C102.656 13.2022 102.28 12.5142 101.528 11.9862C100.776 11.4582 99.7996 11.1942 98.5996 11.1942C97.4156 11.1942 96.4476 11.5302 95.6956 12.2022C94.9596 12.8582 94.5916 13.7142 94.5916 14.7702V19.1862C94.5916 20.2582 94.9756 21.1302 95.7436 21.8022C96.5116 22.4742 97.5036 22.8102 98.7196 22.8102C99.9196 22.8102 100.896 22.5462 101.648 22.0182C102.4 21.4902 102.776 20.8102 102.776 19.9782C102.776 19.5942 102.76 19.2262 102.728 18.8742C103.128 18.7942 103.464 18.7542 103.736 18.7542C104.408 18.7542 104.944 18.9302 105.344 19.2822C105.744 19.6342 105.944 20.1142 105.944 20.7222C105.944 21.6662 105.64 22.5142 105.032 23.2662C104.424 24.0022 103.568 24.5782 102.464 24.9942C101.376 25.4102 100.128 25.6182 98.7196 25.6182ZM112.197 25.6182C110.869 25.6182 109.861 25.2422 109.173 24.4902C108.501 23.7222 108.165 22.7542 108.165 21.5862V10.2102C108.165 9.55422 108.405 9.09022 108.885 8.81822C109.381 8.53022 110.141 8.38622 111.165 8.38622V21.4662C111.165 22.0102 111.285 22.4102 111.525 22.6662C111.765 22.9062 112.149 23.0262 112.677 23.0262C113.269 23.0262 113.861 22.8742 114.453 22.5702C114.613 22.7142 114.733 22.8982 114.813 23.1222C114.909 23.3302 114.957 23.5462 114.957 23.7702C114.957 24.2502 114.717 24.6822 114.237 25.0662C113.757 25.4342 113.077 25.6182 112.197 25.6182ZM120.401 25.6182C119.585 25.6182 118.833 25.4582 118.145 25.1382C117.473 24.8182 116.929 24.3622 116.513 23.7702C116.113 23.1622 115.913 22.4422 115.913 21.6102C115.913 20.7782 116.129 20.0582 116.561 19.4502C116.993 18.8262 117.577 18.3542 118.313 18.0342C119.065 17.6982 119.889 17.5302 120.785 17.5302C121.521 17.5302 122.177 17.6502 122.753 17.8902C123.345 18.1142 123.889 18.4582 124.385 18.9222L124.505 18.8022C124.361 18.6582 124.113 18.4422 123.761 18.1542V17.6742C123.761 17.0182 123.529 16.4982 123.065 16.1142C122.601 15.7302 121.953 15.5382 121.121 15.5382C119.633 15.5382 118.537 16.0822 117.833 17.1702C117.481 17.0582 117.185 16.8822 116.945 16.6422C116.705 16.3862 116.585 16.1142 116.585 15.8262C116.585 15.3462 116.801 14.9062 117.233 14.5062C117.665 14.1062 118.249 13.7862 118.985 13.5462C119.721 13.3062 120.521 13.1862 121.385 13.1862C123.081 13.1862 124.393 13.5862 125.321 14.3862C126.249 15.1702 126.713 16.2422 126.713 17.6022V23.6022C126.713 24.3062 126.489 24.8182 126.041 25.1382C125.593 25.4582 124.889 25.6182 123.929 25.6182V24.6342C124.201 24.3622 124.385 24.1622 124.481 24.0342L124.385 23.9142C123.857 24.4742 123.289 24.8982 122.681 25.1862C122.089 25.4742 121.329 25.6182 120.401 25.6182ZM121.169 23.4342C122.001 23.4342 122.649 23.2742 123.113 22.9542C123.577 22.6342 123.809 22.1782 123.809 21.5862C123.809 21.0102 123.569 20.5542 123.089 20.2182C122.625 19.8822 121.993 19.7142 121.193 19.7142C120.457 19.7142 119.873 19.8822 119.441 20.2182C119.025 20.5382 118.817 20.9942 118.817 21.5862C118.817 22.1942 119.025 22.6582 119.441 22.9782C119.857 23.2822 120.433 23.4342 121.169 23.4342ZM129.401 15.4902C129.401 14.7542 129.633 14.1862 130.097 13.7862C130.577 13.3862 131.297 13.1862 132.257 13.1862V14.6262C132.065 14.8502 131.873 15.1062 131.681 15.3942L131.825 15.4902C132.305 14.7702 132.921 14.2102 133.673 13.8102C134.425 13.3942 135.257 13.1862 136.169 13.1862C136.985 13.1862 137.705 13.3702 138.329 13.7382C138.953 14.1062 139.433 14.6102 139.769 15.2502C140.121 15.8902 140.297 16.6102 140.297 17.4102V23.7942C140.297 24.4342 140.049 24.8982 139.553 25.1862C139.057 25.4742 138.305 25.6182 137.297 25.6182V17.8422C137.297 17.2342 137.113 16.7382 136.745 16.3542C136.393 15.9702 135.873 15.7782 135.185 15.7782C134.369 15.7782 133.697 16.0342 133.169 16.5462C132.641 17.0422 132.377 17.6662 132.377 18.4182V23.7942C132.377 24.4342 132.137 24.8982 131.657 25.1862C131.177 25.4742 130.425 25.6182 129.401 25.6182V15.4902Z" fill="white"/>
<path d="M0 9.62043C0 8.17668 1.17039 7.00629 2.61414 7.00629H15.2107L5.77162 31.8045L2.76077 26.0293L7.98109 12.1988L2.6316 12.2345C1.18106 12.2442 0 11.071 0 9.62043Z" fill="#387DE4"/>
<path d="M29.8172 5.20906L24.0476 5.21123L26.0031 0L29.8224 0.00909036C31.3158 0.0126447 32.4992 1.27057 32.4118 2.76137C32.3311 4.13541 31.1936 5.20854 29.8172 5.20906Z" fill="#FF5C00"/>
<path d="M9.85718 2.6397C9.85718 1.19083 11.0317 0.0162964 12.4806 0.0162964H25.0679L15.6288 24.8145L12.6179 19.0393L17.8149 5.26513L12.4796 5.26309C11.0311 5.26254 9.85718 4.08817 9.85718 2.6397Z" fill="#240CB8"/>
</svg>
